<?xml version="1.0"?>
<!-- Generated by SVGo and Plotinum VG -->
<svg width="792pt" height="576pt" viewBox="0 0 792 576"
	xmlns="http://www.w3.org/2000/svg"
	xmlns:xlink="http://www.w3.org/1999/xlink">
<g transform="scale(1, -1) translate(0, -576)">
<path d="M0,0L792,0L792,576L0,576Z" style="fill:#FFFFFF" />
<text x="208.27" y="-566.61" transform="scale(1, -1)"
	style="font-family:Liberation Serif;font-variant:normal;font-weight:normal;font-style:normal;font-size:12px">Rate of Change (Normalized): Price VERSUS Prior 365 Day(s) Average Price</text>
<text x="15.266" y="-3.252" transform="scale(1, -1)"
	style="font-family:Liberation Serif;font-variant:normal;font-weight:normal;font-style:normal;font-size:10px">2020-11-17</text>
<text x="177.6" y="-3.252" transform="scale(1, -1)"
	style="font-family:Liberation Serif;font-variant:normal;font-weight:normal;font-style:normal;font-size:10px">2021-11-17</text>
<text x="339.93" y="-3.252" transform="scale(1, -1)"
	style="font-family:Liberation Serif;font-variant:normal;font-weight:normal;font-style:normal;font-size:10px">2022-11-17</text>
<text x="502.27" y="-3.252" transform="scale(1, -1)"
	style="font-family:Liberation Serif;font-variant:normal;font-weight:normal;font-style:normal;font-size:10px">2023-11-17</text>
<text x="665.04" y="-3.252" transform="scale(1, -1)"
	style="font-family:Liberation Serif;font-variant:normal;font-weight:normal;font-style:normal;font-size:10px">2024-11-17</text>
<text x="678.2" y="-3.252" transform="scale(1, -1)"
	style="font-family:Liberation Serif;font-variant:normal;font-weight:normal;font-style:normal;font-size:10px">2024-12-17</text>
<text x="691.99" y="-3.252" transform="scale(1, -1)"
	style="font-family:Liberation Serif;font-variant:normal;font-weight:normal;font-style:normal;font-size:10px">2025-01-17</text>
<text x="705.78" y="-3.252" transform="scale(1, -1)"
	style="font-family:Liberation Serif;font-variant:normal;font-weight:normal;font-style:normal;font-size:10px">2025-02-17</text>
<text x="718.21" y="-3.252" transform="scale(1, -1)"
	style="font-family:Liberation Serif;font-variant:normal;font-weight:normal;font-style:normal;font-size:10px">2025-03-16</text>
<text x="732" y="-3.252" transform="scale(1, -1)"
	style="font-family:Liberation Serif;font-variant:normal;font-weight:normal;font-style:normal;font-size:10px">2025-04-16</text>
<text x="745.34" y="-3.252" transform="scale(1, -1)"
	style="font-family:Liberation Serif;font-variant:normal;font-weight:normal;font-style:normal;font-size:10px">2025-05-16</text>
<path d="M38.41,11.074L38.41,19.074" style="fill:none;stroke:#000000;stroke-width:0.5" />
<path d="M200.74,11.074L200.74,19.074" style="fill:none;stroke:#000000;stroke-width:0.5" />
<path d="M363.08,11.074L363.08,19.074" style="fill:none;stroke:#000000;stroke-width:0.5" />
<path d="M525.41,11.074L525.41,19.074" style="fill:none;stroke:#000000;stroke-width:0.5" />
<path d="M688.19,11.074L688.19,19.074" style="fill:none;stroke:#000000;stroke-width:0.5" />
<path d="M701.53,11.074L701.53,19.074" style="fill:none;stroke:#000000;stroke-width:0.5" />
<path d="M715.32,11.074L715.32,19.074" style="fill:none;stroke:#000000;stroke-width:0.5" />
<path d="M729.11,11.074L729.11,19.074" style="fill:none;stroke:#000000;stroke-width:0.5" />
<path d="M741.54,11.074L741.54,19.074" style="fill:none;stroke:#000000;stroke-width:0.5" />
<path d="M755.33,11.074L755.33,19.074" style="fill:none;stroke:#000000;stroke-width:0.5" />
<path d="M768.67,11.074L768.67,19.074" style="fill:none;stroke:#000000;stroke-width:0.5" />
<path d="M38.41,19.074L777.58,19.074" style="fill:none;stroke:#000000;stroke-width:0.5" />
<text x="0" y="-88.792" transform="scale(1, -1)"
	style="font-family:Liberation Serif;font-variant:normal;font-weight:normal;font-style:normal;font-size:10px">-20%</text>
<text x="3.3301" y="-321.84" transform="scale(1, -1)"
	style="font-family:Liberation Serif;font-variant:normal;font-weight:normal;font-style:normal;font-size:10px">00%</text>
<text x="3.3301" y="-554.89" transform="scale(1, -1)"
	style="font-family:Liberation Serif;font-variant:normal;font-weight:normal;font-style:normal;font-size:10px">20%</text>
<text x="0" y="-205.32" transform="scale(1, -1)"
	style="font-family:Liberation Serif;font-variant:normal;font-weight:normal;font-style:normal;font-size:10px">-10%</text>
<text x="3.3301" y="-438.36" transform="scale(1, -1)"
	style="font-family:Liberation Serif;font-variant:normal;font-weight:normal;font-style:normal;font-size:10px">10%</text>
<text x="3.3301" y="-321.84" transform="scale(1, -1)"
	style="font-family:Liberation Serif;font-variant:normal;font-weight:normal;font-style:normal;font-size:10px">00%</text>
<path d="M24.16,91.077L32.16,91.077" style="fill:none;stroke:#000000;stroke-width:0.5" />
<path d="M24.16,324.13L32.16,324.13" style="fill:none;stroke:#000000;stroke-width:0.5" />
<path d="M24.16,557.17L32.16,557.17" style="fill:none;stroke:#000000;stroke-width:0.5" />
<path d="M24.16,207.6L32.16,207.6" style="fill:none;stroke:#000000;stroke-width:0.5" />
<path d="M24.16,440.65L32.16,440.65" style="fill:none;stroke:#000000;stroke-width:0.5" />
<path d="M24.16,324.13L32.16,324.13" style="fill:none;stroke:#000000;stroke-width:0.5" />
<path d="M32.16,24.824L32.16,557.81" style="fill:none;stroke:#000000;stroke-width:0.5" />
<path d="M38.41,24.824L38.41,557.81" style="fill:none;stroke:#808080;stroke-width:0.25" />
<path d="M200.74,24.824L200.74,557.81" style="fill:none;stroke:#808080;stroke-width:0.25" />
<path d="M363.08,24.824L363.08,557.81" style="fill:none;stroke:#808080;stroke-width:0.25" />
<path d="M525.41,24.824L525.41,557.81" style="fill:none;stroke:#808080;stroke-width:0.25" />
<path d="M688.19,24.824L688.19,557.81" style="fill:none;stroke:#808080;stroke-width:0.25" />
<path d="M701.53,24.824L701.53,557.81" style="fill:none;stroke:#808080;stroke-width:0.25" />
<path d="M715.32,24.824L715.32,557.81" style="fill:none;stroke:#808080;stroke-width:0.25" />
<path d="M729.11,24.824L729.11,557.81" style="fill:none;stroke:#808080;stroke-width:0.25" />
<path d="M741.54,24.824L741.54,557.81" style="fill:none;stroke:#808080;stroke-width:0.25" />
<path d="M755.33,24.824L755.33,557.81" style="fill:none;stroke:#808080;stroke-width:0.25" />
<path d="M768.67,24.824L768.67,557.81" style="fill:none;stroke:#808080;stroke-width:0.25" />
<path d="M38.41,91.077L777.58,91.077" style="fill:none;stroke:#808080;stroke-width:0.25" />
<path d="M38.41,324.13L777.58,324.13" style="fill:none;stroke:#808080;stroke-width:0.25" />
<path d="M38.41,557.17L777.58,557.17" style="fill:none;stroke:#808080;stroke-width:0.25" />
<path d="M38.41,207.6L777.58,207.6" style="fill:none;stroke:#808080;stroke-width:0.25" />
<path d="M38.41,440.65L777.58,440.65" style="fill:none;stroke:#808080;stroke-width:0.25" />
<path d="M38.41,324.13L777.58,324.13" style="fill:none;stroke:#808080;stroke-width:0.25" />
<path d="M38.41,446.62L38.855,433.66L39.3,435.33L39.744,424.86L41.079,436.62L41.523,452.16L41.968,445.88L42.858,447.27L44.192,437.7L44.637,443.81L45.081,446.06L45.526,448.78L45.971,457.11L47.305,451.61L47.75,455L48.195,450.08L48.639,448.54L49.084,449.54L50.418,442.85L50.863,454.71L51.308,452.73L51.753,456.95L52.197,451.14L53.532,451.64L53.976,444.18L54.421,448.09L54.866,450.35L56.645,456.8L57.09,454.63L57.534,456.58L57.979,461.84L59.758,449.71L60.203,454.6L60.648,468.93L61.092,476.08L61.537,477.45L62.871,474.21L63.316,475.64L63.761,474.82L64.206,472.45L64.65,465.53L66.429,469.01L66.874,476.53L67.319,476.36L67.764,469.65L69.098,468.08L69.543,466.74L69.987,445.5L70.432,454.59L70.877,432.48L72.211,439.81L72.656,455.79L73.101,456.8L73.545,467.68L73.99,469.98L75.324,477.07L75.769,476.6L76.214,477.92L76.659,477.99L77.103,478.63L78.882,479.82L79.327,482.55L79.772,478.74L80.217,476.21L81.551,476.67L81.996,476.79L82.44,489.47L82.885,471.31L83.33,455.98L84.664,475.7L85.109,470.74L85.554,466.4L85.998,454.7L86.443,472.87L87.777,482.03L88.222,482.66L88.667,496.87L89.112,502.44L89.556,510.84L90.891,515.55L91.335,511.28L91.78,516.27L92.225,511.43L92.67,500.76L94.004,503.88L94.449,493.56L94.893,493.03L95.338,498.89L95.783,511.57L97.117,514.07L97.562,511L98.007,508.51L98.451,511.7L100.23,522.03L100.68,518.98L101.12,518.35L101.56,519.92L102.01,527.12L103.34,525.59L103.79,522.78L104.23,524.28L104.68,531.91L105.12,535.24L106.46,531.49L106.9,523.41L107.35,531.82L107.79,522.18L108.24,528.17L109.57,526L110.01,525.29L110.46,520.54L110.9,526.24L111.35,521.02L112.68,526.62L113.13,527.13L113.57,528.77L114.02,537.16L114.46,543.02L115.8,542.01L116.24,528.04L116.69,507.68L117.13,520.01L117.58,530.19L118.91,527.87L119.35,520.07L119.8,514.7L120.24,520.06L120.69,520.96L122.02,525.79L122.47,523L122.91,522.66L123.36,525.83L123.8,528.15L125.58,528.21L126.03,528.99L126.47,527.47L126.92,532.1L128.25,527.9L128.69,526.64L129.14,521.74L129.58,521.73L130.03,521.58L131.36,518.72L131.81,515.65L132.25,507.56L132.7,500.93L133.14,483.55L134.48,500.38L134.92,501.85L135.37,499.43L135.81,508.22L136.25,514.76L137.59,509.56L138.03,509.24L138.48,514.72L138.92,518.21L139.37,522.12L141.15,515.67L141.59,518.26L142.04,510.57L142.48,522.24L143.82,525.27L144.26,521.85L144.71,522.43L145.15,523.28L145.59,513.76L146.93,493.52L147.37,508.09L147.82,515.82L148.26,516.06L148.71,521.97L150.04,523.76L150.49,521.07L150.93,517.07L151.38,520.62L151.82,516.38L153.16,512.71L153.6,519.83L154.04,510.63L154.49,517.32L154.93,520.68L156.27,517.34L156.71,520.85L157.16,525.99L157.6,525.99L158.05,525.56L159.38,528L159.83,519.69L160.27,508.55L160.72,505.74L161.16,509.54L162.5,514.85L162.94,514.37L163.38,514.49L163.83,507.52L164.27,512.95L165.61,510.2L166.05,508.38L166.5,505.89L166.94,508.04L167.39,504.68L169.17,495.82L169.61,492.66L170.06,487.38L170.5,478.68L171.83,485.03L172.28,475.54L172.72,481.16L173.17,478.04L173.61,469.48L174.95,449.61L175.39,447.73L175.84,457.09L176.28,471.13L176.73,471.04L178.06,472.17L178.51,454.24L178.95,455.86L179.4,438.11L179.84,452.09L181.17,441.4L181.62,449.95L182.06,451.96L182.51,461.49L182.95,460.22L184.29,451.68L184.73,447.11L185.18,446.45L185.62,461.13L186.07,470.98L187.4,468.91L187.85,473.53L188.29,477.02L188.74,475.8L189.18,476.96L190.51,478.15L190.96,476.93L191.4,468.66L191.85,474.31L192.29,475.92L193.63,477.46L194.07,480.49L194.52,482.23L194.96,480.66L195.41,485.15L196.74,487.01L197.19,483.17L197.63,476.06L198.08,470.6L198.52,474.88L199.85,473.91L200.3,475.05L200.74,468.43L201.19,466.24L201.63,455.55L202.97,455.46L203.41,459.83L203.86,458.97L204.75,431.51L206.08,437.26L206.53,417.24L206.97,402.45L207.41,421L207.86,419.07L209.19,438.2L209.64,451.81L210.08,451.57L210.53,451.01L210.97,456.23L212.31,446.08L212.75,442.65L213.2,452.41L213.64,450.45L214.09,432.49L215.42,418.42L215.87,434.64L216.31,441.12L216.75,446.06L218.53,455.5L218.98,457.7L219.42,459.25L219.87,456.21L220.31,453.24L221.65,459.11L222.09,464.39L222.54,452.84L222.98,447.11L223.43,446.02L224.76,440.76L225.2,444.97L225.65,445.28L226.09,439.37L226.54,432.53L228.32,415.94L228.76,404.49L229.21,394.36L229.65,377.79L230.99,381.9L231.43,378.56L231.88,373.09L232.32,372.81L232.77,390.12L234.1,401.92L234.54,410.04L234.99,415.7L235.43,399.55L235.88,398.59L237.21,398.06L237.66,408.66L238.1,417.5L238.55,401.29L238.99,384.18L240.33,379.15L240.77,392.38L241.22,390.04L241.66,370.25L242.11,360.75L243.88,343.48L244.33,327.38L244.77,329.72L245.22,357.16L246.55,352.59L247,330.94L247.44,350.4L247.89,346.88L248.33,340.61L249.67,312.01L250.11,304.42L250.56,328.28L251,323.17L251.45,315.24L252.78,314.88L253.22,335.76L253.67,352.69L254.11,365.55L254.56,370.6L255.89,364.29L256.34,372.44L256.78,356.46L257.23,367.85L257.67,372.08L259.01,374.55L259.45,384.96L259.9,381.68L260.34,364.17L260.78,367.39L262.12,370.75L262.56,360.76L263.01,354.98L263.45,358.41L263.9,362.33L265.23,347.96L265.68,343.97L266.12,355L266.57,349.41L268.35,348.08L268.79,363.86L269.24,370.93L269.68,358.02L270.12,325.84L271.46,333.23L271.9,304.58L272.35,306.28L272.79,327.71L273.24,293.46L274.57,296.97L275.02,298.49L275.46,330.81L275.91,294.06L276.35,289.45L277.69,265.05L278.13,261.9L278.57,248.68L279.02,245.29L279.46,262.8L280.8,264.65L281.24,280.6L281.69,236.08L282.13,226.46L282.58,223.27L283.91,248.66L284.36,250.62L284.8,257.72L285.25,277.02L285.69,297.28L287.47,290.24L287.91,283.25L288.36,299L288.8,286.34L290.14,286.44L290.58,296.01L291.03,285.6L291.47,261.55L291.92,227.65L293.25,191.24L293.7,185.77L294.14,198.22L294.59,166.61L295.03,161.42L296.81,190.1L297.25,187.25L297.7,196.36L298.14,230.38L299.48,227.7L299.92,207.18L300.37,210.13L300.81,200.84L301.26,213.42L303.04,208.73L303.48,211.64L303.93,226.04L304.37,224.02L305.7,216.84L306.15,209.65L306.59,200.37L307.04,194.61L307.48,220.49L308.82,212.22L309.26,242.14L309.71,244.53L310.15,250.94L310.6,245.64L311.93,249.09L312.38,239.58L312.82,256.9L313.27,269.03L313.71,281.68L315.04,279.28L315.49,264.22L315.93,279.51L316.38,276.43L316.82,278.57L318.16,280.14L318.6,278.12L319.05,297.17L319.49,298.83L319.94,313.16L321.27,318.27L321.72,326.11L322.16,320.6L322.6,321.69L323.05,309.22L324.38,286.68L324.83,280.6L325.27,283.34L325.72,295.25L326.16,257.42L327.5,250.48L327.94,238.64L328.39,229.25L328.83,234.97L329.28,221.85L331.06,215.62L331.5,232.39L331.94,240.08L332.39,255.87L333.72,264.66L334.17,214.27L334.61,215.82L335.06,209.08L335.5,199.73L336.84,208.73L337.28,195.94L337.73,173.94L338.17,168.67L338.62,148.26L339.95,134.33L340.39,128.25L340.84,153.7L341.28,133.52L341.73,110.86L343.06,146.47L343.51,183.91L343.95,182.8L344.4,167.65L344.84,139.85L346.18,135.68L346.62,137.74L347.07,137.64L347.51,175.94L347.96,159.83L349.29,183.38L349.73,198.41L350.18,194.1L350.62,190.12L351.07,222.16L352.4,239.19L352.85,252.95L353.29,252.78L353.74,261.06L354.18,291.61L355.52,287.48L355.96,283.89L356.41,265.11L356.85,259.63L357.3,276.06L358.63,292.06L359.07,304.09L359.52,281.02L359.96,323.92L360.41,325.83L361.74,318.91L362.19,320.56L362.63,320.17L363.08,320.37L363.52,324.85L364.86,323.82L365.3,337.26L365.75,340.63L366.64,345.89L367.97,328.87L368.41,328.84L368.86,354.51L369.3,348.7L369.75,349.75L371.08,333.91L371.53,321.67L371.97,321.67L372.42,328.7L372.86,318.05L374.2,336.19L374.64,340.26L375.09,334.95L375.53,309.26L375.97,295.66L377.31,290.02L377.75,293.88L378.2,312.79L378.64,301.04L379.09,307.2L380.87,308.94L381.31,295.43L381.76,308.08L382.2,305.61L383.98,305.37L384.43,310.31L384.87,298.52L385.31,323.73L386.65,320.43L387.09,327.29L387.54,336.07L387.98,343.71L388.43,347.24L390.21,334.25L390.65,312.86L391.1,304.71L391.54,315.71L392.88,324.6L393.32,327.97L393.76,328.9L394.21,336.04L394.65,337.04L395.99,328.48L396.43,341.48L396.88,341.7L397.32,340.3L397.77,335.49L399.1,333.92L399.55,344.35L399.99,337.38L400.44,329.51L400.88,335.32L402.22,348.33L402.66,343.72L403.1,345.58L403.55,331.23L403.99,334.47L405.77,310.05L406.22,307.64L406.66,311.92L407.11,299.32L408.44,302.93L408.89,294.05L409.33,295.84L409.78,308.47L410.22,321.94L411.55,323.62L412,303.07L412.44,301.83L412.89,282.14L413.33,269.74L414.67,266.54L415.11,279.57L415.56,269.75L416,283.94L416.45,266.16L417.78,280.8L418.23,293.32L418.67,273.18L419.12,275.96L419.56,281.8L420.89,289.43L421.34,287.77L421.78,299.98L422.23,305.26L422.67,320.23L424.01,331.87L424.45,325.22L424.9,328.49L425.34,328.97L427.12,332.84L427.57,336.27L428.01,335.47L428.46,348.39L428.9,343.4L430.23,347.22L430.68,347L431.12,344.47L431.57,341.16L432.01,341.92L433.35,344.32L433.79,332.89L434.24,324.89L434.68,343.23L435.13,352.94L436.46,350.9L436.91,339.3L437.35,330.04L437.79,320.56L438.24,339.57L439.57,338.01L440.02,336.65L440.46,335.9L440.91,328.64L441.35,328.34L442.69,330.5L443.13,318.61L443.58,333.61L444.02,338.71L444.47,332.37L445.8,328.06L446.25,320.26L446.69,311.26L447.13,310.62L447.58,321.94L449.36,321.06L449.8,317.77L450.25,323.09L450.69,347.95L452.03,341.51L452.47,341.77L452.92,345.35L453.36,351.08L453.81,352.82L455.14,359.37L455.58,364.36L456.03,357.3L456.47,371.8L456.92,366.05L458.7,358.04L459.14,354.87L459.59,354.8L460.03,347.68L461.37,347.85L461.81,355.11L462.26,353.32L462.7,361.97L463.15,370.98L464.48,371.83L465.37,367.82L465.81,356.05L466.26,350.08L467.59,357.34L468.04,367.49L468.48,370.73L468.93,371.65L469.37,375.68L470.71,377.88L471.15,389.79L471.6,393.31L472.04,398.77L472.49,397.86L473.82,403.8L474.26,404.54L474.71,407.38L475.15,399.79L475.6,405.05L476.93,408.31L477.38,410.13L477.82,399.49L478.27,397.14L478.71,392.89L480.05,405.08L480.49,400L480.94,394.41L481.38,396.13L481.83,399.47L483.16,399.99L483.6,388.59L484.05,382.67L484.49,373.89L484.94,374L486.27,372.39L486.72,366.65L487.16,372.65L487.61,360.09L488.05,368.11L489.39,375.15L489.83,384.37L490.28,386.77L490.72,381.69L491.16,385.4L492.94,379L493.39,372.64L493.83,374.86L494.28,377.51L495.61,380.28L496.06,379.79L496.5,377.72L496.95,388.54L497.39,376.43L498.73,376.48L499.17,373.03L499.62,370.61L500.06,358.32L500.5,355.04L501.84,356.45L502.28,343.2L502.73,341.17L503.17,345.33L503.62,339.7L504.95,336.83L505.4,322.62L505.84,326.39L506.29,327.18L506.73,337.44L508.07,344.32L508.51,348.9L508.95,350.82L509.4,344.87L509.84,346.2L511.18,356.94L511.62,357.19L512.07,345.9L512.51,337.25L512.96,327.01L514.29,320.32L514.74,327.73L515.18,323.77L515.63,314.65L516.07,301.44L517.41,319.61L517.85,324.02L518.29,331.58L518.74,350.93L519.18,358.11L520.52,359.33L520.96,360.78L521.41,359.21L521.85,352.37L522.3,365.23L523.63,366.94L524.08,382.43L524.52,388.13L524.97,387.16L525.41,385.11L526.74,391.51L527.19,389.12L527.63,394.3L528.52,397.79L529.86,395.88L530.3,397.87L530.75,399.11L531.19,414.83L531.64,423.32L532.97,421.6L533.42,418.94L533.86,416.41L534.31,417.81L534.75,421.2L536.08,425.33L536.53,429.84L536.97,444.53L537.42,448.46L537.86,445.96L539.2,446.41L539.64,452.9L540.09,439.23L540.53,447.38L540.98,446.61L542.76,450.36L543.2,453.11L543.65,453.86L544.09,452.86L545.87,452.97L546.31,444.49L546.76,444.95L547.2,444.76L548.54,450.39L548.98,445.29L549.43,449.75L549.87,449.91L550.32,446.02L552.1,439.33L552.54,436.25L552.99,441.75L553.43,451.83L554.76,455.42L555.21,452.18L555.65,449.14L556.1,455.3L556.54,456.56L557.88,462.18L558.32,464.97L558.77,456.23L559.21,465.89L559.66,469.02L560.99,461.06L561.44,464.63L561.88,468.38L562.32,469.7L562.77,467.59L564.1,470.73L564.55,456.09L564.99,459.51L565.44,469.45L565.88,463.42L567.66,461.49L568.11,461.84L568.55,473.08L569,474.41L570.33,472.37L570.78,469.09L571.22,468.29L571.66,468.57L572.11,471.47L573.44,467.97L573.89,456.63L574.33,458.61L574.78,461.28L575.22,459.34L576.56,459.72L577,465.19L577.45,465.5L577.89,461.71L578.34,452.75L579.67,453.88L580.11,461.52L580.56,471.45L581,477.78L581.45,468.72L582.78,463.79L583.23,462.71L583.67,474.07L584.12,473.73L585.9,466.7L586.34,456.24L586.79,454.53L587.23,439.77L587.68,446.77L589.01,446.71L589.45,445.37L589.9,433L590.34,432.54L590.79,418.99L592.12,411.22L592.57,412.72L593.01,410.78L593.46,411.46L593.9,416.55L595.24,423.26L595.68,430.12L596.13,428.05L596.57,417.8L597.02,421.23L598.35,425L598.79,408.66L599.24,410.47L599.68,419.54L600.13,431.71L601.46,435.87L601.91,436.24L602.35,440.51L602.8,449.48L603.24,452.16L604.58,449.85L605.02,452.34L605.47,461.5L605.91,460.89L606.35,462.36L607.69,457.14L608.13,458.44L608.58,452.43L609.02,436.01L609.47,435.53L611.25,429.54L611.69,418.06L612.14,409L612.58,425.53L613.92,421.52L614.36,424.55L614.81,426.85L615.25,428.54L615.69,425.79L617.03,427.5L617.47,423.41L617.92,422.18L618.36,419.46L618.81,417.85L620.14,423.24L620.59,424.3L621.48,431.8L621.92,429.32L623.26,435.97L623.7,427.52L624.14,427.68L624.59,428.13L625.03,426.55L626.37,427.06L626.81,431.58L627.26,429.85L628.15,431.69L629.48,430.55L629.93,428.69L630.37,439.77L630.82,440.27L631.26,446.85L632.6,451.66L633.04,469.64L633.48,474.72L633.93,461.17L634.37,451.02L635.71,453.6L636.15,451.39L636.6,438.34L637.04,440.03L637.49,456.29L638.82,454.58L639.27,458.92L639.71,461.12L640.16,447.18L640.6,430.64L641.93,401.91L642.38,410.24L642.82,403.66L643.27,421.78L643.71,422.94L645.05,418.67L645.49,428.95L645.94,434.48L646.38,448.98L646.83,450.62L648.16,456.08L648.61,454.06L649.05,454.52L649.5,450.01L649.94,460.31L651.27,461.81L651.72,461.53L652.16,456.94L652.61,462.67L653.05,467.61L654.83,452.04L655.28,451.81L655.72,446.12L656.17,435.14L657.5,446.3L657.95,443.62L658.39,445.54L658.84,451.75L659.28,458.53L660.61,463.93L661.06,463.01L661.5,459.73L661.95,471.87L662.39,469.18L663.73,469.85L664.17,471.67L664.62,463.71L665.06,469.2L665.51,471.78L666.84,471.57L667.29,467.02L667.73,467.39L668.18,462.06L668.62,469.76L669.95,459.88L670.4,462.16L670.84,471.77L671.29,470.18L671.73,479.23L673.07,483.64L673.51,475.06L673.96,481.86L674.4,485.15L674.85,484.89L676.18,476.52L676.63,475.68L677.07,465.08L677.51,461.06L677.96,453.92L679.29,460.42L679.74,455.89L680.18,453.38L680.63,442.61L681.07,448.82L682.41,442.26L682.85,452.13L683.3,486.86L683.74,486.43L684.19,491.86L685.52,497.6L685.97,488.6L686.41,488.77L686.85,483.2L687.3,475.07L688.63,473.6L689.08,469.72L689.52,472.43L689.97,482.58L690.41,491.39L691.75,500.49L692.19,502.63L692.64,499.38L693.53,503.8L694.86,500.06L695.3,497.4L695.75,503.34L696.19,497.55L696.64,493.38L697.97,487.97L698.42,484.07L698.86,480.65L699.31,474.8L699.75,472.02L701.09,469L701.53,461.71L701.98,433.48L702.42,433.61L702.87,442.88L704.2,443.11L704.64,451.21L705.53,452.27L705.98,443.88L707.31,432.89L707.76,431.66L708.65,426.86L709.09,434.68L710.43,434.06L710.87,429.05L711.32,430.52L712.21,412.79L713.54,421.54L713.98,426.53L714.43,443.46L714.87,441.22L715.32,448.25L717.1,460.37L717.54,462.51L717.99,471.33L718.43,467.76L719.77,473.96L720.21,476.21L720.66,472.74L721.1,475.76L721.55,467.23L722.88,463.93L723.32,466.12L723.77,472.57L724.21,468.84L724.66,458.33L725.99,461.45L726.44,463.79L726.88,457.33L727.33,465.03L727.77,460.95L729.55,460.55L730,461.58L730.44,450.92L730.88,430.5L732.22,430.77L732.66,434.01L733.11,429.01L733.55,423.49L734,437.5L735.33,421.56L735.78,404.55L736.22,416.31L736.67,404.16L737.11,409.53L738.45,386.29L738.89,373.04L739.34,370.33L739.78,355.57L740.22,372.97L741.56,382.62L742,374.85L742.45,384.54L742.89,383.06L743.34,381.07L744.67,395.69L745.12,395.86L745.56,391.08L746.01,387.08L746.45,367.01L747.79,377.8L748.23,376.39L748.67,382.23L749.12,335.65L749.56,268.85L750.9,256.7L751.34,246.17L751.79,336.42L752.23,305.51L752.68,323.34L754.01,332.86L754.46,327.31L754.9,306.39L755.35,289.5L757.12,258.38L757.57,290.23L758.01,302.05L758.46,316.63L758.9,316.27L760.24,319.44L760.68,327.43L761.13,330.17L761.57,332.75L762.02,348.04L763.35,345.39L763.8,333.64L764.24,341.08L764.69,348.47L765.13,343.95L766.46,375.38L766.91,367.66L767.35,364.58L767.8,371.87L768.24,379.39L769.58,382.76L770.02,379.5L770.47,357.22L770.91,356.98L771.36,349.77L773.14,369.57L773.58,362.66L774.03,365L774.47,365.62L775.8,367.51L776.25,373.19L776.69,369.98L777.14,367.03L777.58,378.22" style="fill:none;stroke:#F15A60" />
<path d="M38.41,489.91L38.855,477.09L39.3,480.73L39.744,473.15L41.079,478.62L41.523,494.05L41.968,491.86L42.858,494.02L44.192,488.97L44.637,499.22L45.081,500.67L45.526,499.76L45.971,507.56L47.305,504.85L47.75,507.06L48.195,497.49L48.639,496.55L49.084,494.77L50.418,489.71L50.863,502.47L51.308,503.39L51.753,508.25L52.197,499.48L53.532,495.32L53.976,493.06L54.421,493.37L54.866,496.65L56.645,504.49L57.09,501.98L57.534,502.75L57.979,507.1L59.758,492.91L60.203,499.14L60.648,504.42L61.092,518.24L61.537,523.09L62.871,515.85L63.316,515.37L63.761,517.28L64.206,513.13L64.65,505.15L66.429,512.08L66.874,524.67L67.319,524.8L67.764,520.6L69.098,523.62L69.543,521.34L69.987,496.24L70.432,503.95L70.877,483.05L72.211,498.87L72.656,511.96L73.101,511.98L73.545,522.22L73.99,525.18L75.324,531.28L75.769,529.79L76.214,528.55L76.659,529.3L77.103,533.22L78.882,531.56L79.327,530.98L79.772,526.11L80.217,523.65L81.551,515.41L81.996,515.86L82.44,525.76L82.885,501.21L83.33,495.41L84.664,518.27L85.109,509.9L85.554,496.04L85.998,482.91L86.443,500.44L87.777,494.78L88.222,508.07L88.667,513.41L89.112,522.45L89.556,522.96L90.891,527.91L91.335,525.86L91.78,528.27L92.225,513.21L92.67,507.4L94.004,514.39L94.449,505.8L94.893,499.97L95.338,504.73L95.783,519.59L97.117,518.3L97.562,514.93L98.007,518.09L98.451,527.69L100.23,540.49L100.68,539.1L101.12,539.35L101.56,543.01L102.01,549L103.34,548.49L103.79,550.43L104.23,546.36L104.68,555.56L105.12,557.81L106.46,552.36L106.9,544.61L107.35,552.66L107.79,543.18L108.24,552.54L109.57,553.66L110.01,552.63L110.46,551.53L110.9,556.64L111.35,549.63L112.68,550.84L113.13,544.2L113.57,543.7L114.02,550.39L114.46,556.36L115.8,546.18L116.24,536.88L116.69,515.41L117.13,526.27L117.58,540.1L118.91,536.88L119.35,527.78L119.8,524.47L120.24,533.98L120.69,532.42L122.02,541.31L122.47,538.4L122.91,539.49L123.36,539.21L123.8,540.13L125.58,538.53L126.03,539.26L126.47,534.96L126.92,542.87L128.25,541.18L128.69,540.61L129.14,538.43L129.58,542.09L130.03,542.89L131.36,544.23L131.81,541.72L132.25,535.64L132.7,534.57L133.14,517.59L134.48,530.61L134.92,534.98L135.37,533.1L135.81,538L136.25,540.64L137.59,541.81L138.03,541.57L138.48,541.65L138.92,546.15L139.37,552.58L141.15,550.12L141.59,552.68L142.04,544.2L142.48,553.4L143.82,555.94L144.26,551.94L144.71,552.55L145.15,548.5L145.59,540.24L146.93,525.24L147.37,538.18L147.82,545.11L148.26,546.33L148.71,555.2L150.04,556.73L150.49,551.71L150.93,550.58L151.38,553.73L151.82,548.41L153.16,545.7L153.6,552.58L154.04,547.17L154.49,552.26L154.93,552.87L156.27,551.16L156.71,551.29L157.16,552.56L157.6,554.39L158.05,555.05L159.38,556.3L159.83,549.1L160.27,537.63L160.72,537.9L161.16,544.33L162.5,551.36L162.94,551.43L163.38,552.12L163.83,545.06L164.27,552.06L165.61,554.68L166.05,551.79L166.5,550.72L166.94,551.98L167.39,550.27L169.17,545.45L169.61,542.95L170.06,537.48L170.5,528.57L171.83,529.68L172.28,523.03L172.72,529.66L173.17,526.72L173.61,512.81L174.95,494.96L175.39,492.84L175.84,501.33L176.28,512.02L176.73,512.49L178.06,508.48L178.51,487.11L178.95,487.71L179.4,474.18L179.84,484.96L181.17,470.68L181.62,480.07L182.06,483.14L182.51,490.69L182.95,487.75L184.29,479.38L184.73,475.83L185.18,478.36L185.62,493.99L186.07,500.39L187.4,502.16L187.85,508.58L188.29,511.31L188.74,512.72L189.18,510.54L190.51,514.55L190.96,514.24L191.4,508.7L191.85,516.97L192.29,517.78L193.63,518.32L194.07,521.09L194.52,525.82L194.96,529.21L195.41,531.42L196.74,531.11L197.19,526.81L197.63,517.88L198.08,517.13L198.52,523.38L199.85,522.64L200.3,525.44L200.74,522.1L201.19,524.37L201.63,521.62L202.97,517.74L203.41,517.91L203.86,519.4L204.75,496.19L206.08,507.21L206.53,486.65L206.97,474.35L207.41,488.68L207.86,478.87L209.19,489.66L209.64,508.89L210.08,510.33L210.53,502.55L210.97,510.68L212.31,500.84L212.75,492.93L213.2,507.26L213.64,497.45L214.09,482.22L215.42,470.37L215.87,487.2L216.31,496.11L216.75,501.25L218.53,514.04L218.98,512.2L219.42,512.41L219.87,508.67L220.31,505.18L221.65,509.85L222.09,508.49L222.54,488.22L222.98,486.29L223.43,481.3L224.76,479.08L225.2,487.24L225.65,488.97L226.09,474.01L226.54,473.5L228.32,454.26L228.76,442.54L229.21,429.98L229.65,407.96L230.99,411.77L231.43,397.7L231.88,394.23L232.32,388.08L232.77,414.1L234.1,432.39L234.54,438.69L234.99,448L235.43,422.09L235.88,426.35L237.21,422.18L237.66,430.18L238.1,444.74L238.55,424.87L238.99,402.73L240.33,398.53L240.77,415.26L241.22,415.74L241.66,391.55L242.11,383.63L243.88,370.93L244.33,350.01L244.77,366.25L245.22,389.84L246.55,386.31L247,368.52L247.44,388.08L247.89,381.78L248.33,371.91L249.67,337.19L250.11,327.65L250.56,357.29L251,351.41L251.45,336.06L252.78,326.9L253.22,351.3L253.67,375.33L254.11,388.36L254.56,396.18L255.89,395.07L256.34,406.99L256.78,392.11L257.23,407.72L257.67,412.28L259.01,419.17L259.45,431.5L259.9,424.14L260.34,406.7L260.78,408.99L262.12,417.4L262.56,402.88L263.01,391.14L263.45,395.93L263.9,392.22L265.23,372.35L265.68,367.37L266.12,379.29L266.57,364.44L268.35,364.12L268.79,381.27L269.24,379.72L269.68,362.18L270.12,329.72L271.46,335.87L271.9,300.9L272.35,303.78L272.79,332.51L273.24,287.58L274.57,294.39L275.02,299.43L275.46,334.14L275.91,291.02L276.35,283.37L277.69,243.05L278.13,245.64L278.57,225.27L279.02,223.71L279.46,253.03L280.8,247.7L281.24,272.47L281.69,221.02L282.13,213.02L282.58,213.41L283.91,236.69L284.36,226.81L284.8,237.65L285.25,261.92L285.69,291.02L287.47,283.91L287.91,273.74L288.36,296.17L288.8,275.89L290.14,279.24L290.58,290.4L291.03,276.85L291.47,246.97L291.92,209.63L293.25,158.97L293.7,154.92L294.14,173.68L294.59,128.55L295.03,125.65L296.81,159.21L297.25,156.82L297.7,169.82L298.14,210.48L299.48,205.49L299.92,178.63L300.37,177.55L300.81,166.76L301.26,180.62L303.04,183.11L303.48,187.52L303.93,206.73L304.37,205.63L305.7,190.76L306.15,179.08L306.59,172.14L307.04,168.86L307.48,193.6L308.82,182.78L309.26,217.16L309.71,225.16L310.15,237.85L310.6,226.06L311.93,227.56L312.38,212.4L312.82,244.72L313.27,260.07L313.71,277.63L315.04,273.88L315.49,265.65L315.93,284.38L316.38,283.35L316.82,281.11L318.16,279.53L318.6,274.47L319.05,299.23L319.49,299L319.94,318.56L321.27,323.03L321.72,324.92L322.16,316.25L322.6,319.32L323.05,303.07L324.38,277.59L324.83,274.5L325.27,278.24L325.72,294.97L326.16,252.93L327.5,244.64L327.94,230.73L328.39,221.01L328.83,224.96L329.28,211.43L331.06,206.55L331.5,229.18L331.94,237.35L332.39,256.47L333.72,269.48L334.17,213.91L334.61,218.82L335.06,204.33L335.5,189.26L336.84,199.44L337.28,184.63L337.73,161.69L338.17,150.74L338.62,128.26L339.95,115.04L340.39,111.98L340.84,139.02L341.28,110.61L341.73,89.394L343.06,125.92L343.51,167.28L343.95,164.52L344.4,151.06L344.84,113.05L346.18,102.94L346.62,94.645L347.07,90.562L347.51,127.07L347.96,95.741L349.29,131.16L349.73,147.38L350.18,138.25L350.62,127.25L351.07,159.99L352.4,176.32L352.85,197.22L353.29,187.67L353.74,180.97L354.18,211.63L355.52,202.52L355.96,197.1L356.41,164.1L356.85,150.69L357.3,170.08L358.63,182.94L359.07,190.28L359.52,163.28L359.96,232.73L360.41,244.98L361.74,234.46L362.19,245.3L362.63,235.93L363.08,232.3L363.52,238.2L364.86,233.86L365.3,250.76L365.75,258.72L366.64,258.62L367.97,238.82L368.41,236.88L368.86,275.29L369.3,274.49L369.75,273.21L371.08,251.06L371.53,233.16L371.97,231.28L372.42,241.34L372.86,232.2L374.2,250.35L374.64,259.9L375.09,252.25L375.53,221.5L375.97,200.84L377.31,190.22L377.75,192.46L378.2,212.03L378.64,193.96L379.09,201.83L380.87,197.17L381.31,181.33L381.76,204.86L382.2,201.86L383.98,196.86L384.43,207.21L384.87,192.88L385.31,222.46L386.65,222.16L387.09,231.4L387.54,247.51L387.98,252.37L388.43,257.47L390.21,255.55L390.65,236.1L391.1,227.32L391.54,250.83L392.88,265.89L393.32,264.91L393.76,265.71L394.21,279.37L394.65,282.47L395.99,267.46L396.43,285.51L396.88,298.42L397.32,315.73L397.77,303.33L399.1,296.31L399.55,312L399.99,299.25L400.44,289.12L400.88,292.25L402.22,306.49L402.66,306.24L403.1,310.37L403.55,294.22L403.99,291.58L405.77,267.41L406.22,266.14L406.66,273.01L407.11,260.24L408.44,264.81L408.89,260.65L409.33,256.33L409.78,266.27L410.22,285.92L411.55,286.99L412,268.5L412.44,270.81L412.89,248.27L413.33,230.53L414.67,229.2L415.11,250.09L415.56,242.64L416,264.46L416.45,245.55L417.78,257.71L418.23,273.98L418.67,253.2L419.12,256.91L419.56,265.3L420.89,267.9L421.34,265.45L421.78,283.3L422.23,290.65L422.67,307.64L424.01,312.42L424.45,306.16L424.9,303.4L425.34,308.37L427.12,309.92L427.57,310.59L428.01,306.13L428.46,322L428.9,319.49L430.23,324.03L430.68,325.14L431.12,325.31L431.57,319.32L432.01,320.65L433.35,322.31L433.79,303.93L434.24,299.37L434.68,323.05L435.13,333.32L436.46,332.54L436.91,319.8L437.35,312.17L437.79,304.25L438.24,326.29L439.57,327.03L440.02,322.34L440.46,328.21L440.91,326.62L441.35,325.46L442.69,329.87L443.13,322.4L443.58,336.71L444.02,348.02L444.47,346.62L445.8,347.39L446.25,334.81L446.69,326.82L447.13,337.22L447.58,352.38L449.36,353.17L449.8,347.16L450.25,358.31L450.69,374.77L452.03,372.87L452.47,375.5L452.92,371.9L453.36,378.92L453.81,381.22L455.14,391.53L455.58,399.03L456.03,400.63L456.47,414.24L456.92,406.8L458.7,401.43L459.14,396.12L459.59,400.3L460.03,392.24L461.37,387.98L461.81,400.17L462.26,400.97L462.7,405.49L463.15,418.32L464.48,419.71L465.37,418.21L465.81,409.81L466.26,407.13L467.59,409.86L468.04,416.69L468.48,425.2L468.93,433.49L469.37,432.7L470.71,436.31L471.15,444.07L471.6,446.38L472.04,439.43L472.49,439.39L473.82,444.03L474.26,446.83L474.71,446.96L475.15,440.01L475.6,450.17L476.93,452.03L477.38,448.92L477.82,434.17L478.27,431.11L478.71,426.22L480.05,435.33L480.49,430.57L480.94,423.26L481.38,423.51L481.83,422.83L483.16,428.62L483.6,415.99L484.05,408.02L484.49,399.69L484.94,400.18L486.27,407.1L486.72,403.99L487.16,415.87L487.61,400.65L488.05,408.15L489.39,414.8L489.83,429.99L490.28,434.24L490.72,432.63L491.16,434.55L492.94,429.93L493.39,422.76L493.83,419.46L494.28,421.11L495.61,428.14L496.06,422.34L496.5,423.69L496.95,432.89L497.39,416.24L498.73,416.94L499.17,414.8L499.62,404.89L500.06,386.73L500.5,384.37L501.84,389.12L502.28,372.78L502.73,373.32L503.17,379.88L503.62,377.25L504.95,376.88L505.4,361.92L505.84,370.25L506.29,369.93L506.73,383.07L508.07,390.1L508.51,395.68L508.95,400.01L509.4,393.27L509.84,387.62L511.18,398.97L511.62,398.77L512.07,383.99L512.51,374.07L512.96,360.08L514.29,357.95L514.74,366.25L515.18,349.66L515.63,335.65L516.07,330.32L517.41,343.93L517.85,351.02L518.29,362.84L518.74,383.77L519.18,393.47L520.52,395.7L520.96,398.5L521.41,399.01L521.85,390.21L522.3,406.96L523.63,405.73L524.08,426.13L524.52,428.16L524.97,429.18L525.41,430.22L526.74,438.06L527.19,435.47L527.63,439.16L528.52,439.34L529.86,436.89L530.3,437.36L530.75,436.09L531.19,439.6L531.64,445.15L532.97,439.05L533.42,438.27L533.86,433.46L534.31,441.01L534.75,445.01L536.08,448.51L536.53,452.68L536.97,466.19L537.42,468.86L537.86,462.42L539.2,467.58L539.64,473.2L540.09,458.34L540.53,467.45L540.98,468.88L542.76,472.54L543.2,473.72L543.65,473.49L544.09,469.9L545.87,463.61L546.31,454.63L546.76,450.81L547.2,451.74L548.54,465.85L548.98,463.73L549.43,469.01L549.87,468.09L550.32,468.37L552.1,464.16L552.54,457.98L552.99,466.68L553.43,478.86L554.76,480.54L555.21,483.01L555.65,483.62L556.1,488.64L556.54,486.92L557.88,494.4L558.32,493.23L558.77,476.3L559.21,489.02L559.66,499.05L560.99,494.96L561.44,497.32L561.88,505.01L562.32,504.9L562.77,510.06L564.1,509.01L564.55,494.69L564.99,503.03L565.44,509.13L565.88,503.55L567.66,497.41L568.11,497.62L568.55,517.11L569,517.1L570.33,512.89L570.78,514.1L571.22,512.09L571.66,514.89L572.11,523.22L573.44,521.39L573.89,510.84L574.33,515L574.78,523.76L575.22,517.05L576.56,515.32L577,524.78L577.45,522.31L577.89,519.5L578.34,508.8L579.67,513.65L580.11,518.13L580.56,526.19L581,528.48L581.45,525.75L582.78,522.1L583.23,519.33L583.67,526.43L584.12,525.23L585.9,522.59L586.34,515.39L586.79,515.53L587.23,502.57L587.68,511.88L589.01,511.49L589.45,511.73L589.9,500.97L590.34,507.58L590.79,492.98L592.12,479.52L592.57,476.94L593.01,470.16L593.46,467.32L593.9,457.52L595.24,466.14L595.68,477.36L596.13,476.09L596.57,471.44L597.02,480.18L598.35,483.03L598.79,466.12L599.24,462.11L599.68,470.98L600.13,482.77L601.46,492.33L601.91,492.69L602.35,492.03L602.8,497.02L603.24,497.58L604.58,496.98L605.02,500.75L605.47,512.07L605.91,509.32L606.35,510L607.69,510.39L608.13,512L608.58,508.35L609.02,500.3L609.47,506.02L611.25,505.88L611.69,498.15L612.14,490.78L612.58,499.04L613.92,499.02L614.36,499.25L614.81,509.99L615.25,509.05L615.69,506.97L617.03,509.09L617.47,510.53L617.92,517.59L618.36,518.57L618.81,518.23L620.14,524.96L620.59,526.44L621.48,522.85L621.92,517.45L623.26,513.36L623.7,516.2L624.14,516.51L624.59,517.16L625.03,512.44L626.37,513.6L626.81,519.26L627.26,522.66L628.15,527.27L629.48,527.46L629.93,527.51L630.37,536.05L630.82,526.83L631.26,532L632.6,533.75L633.04,538.47L633.48,524.04L633.93,515.72L634.37,508.42L635.71,517.65L636.15,515.29L636.6,491.88L637.04,485.88L637.49,496.23L638.82,496.01L639.27,490.18L639.71,505.41L640.16,490.47L640.6,470.71L641.93,439.38L642.38,448.25L642.82,440.48L643.27,463.47L643.71,467.17L645.05,466.9L645.49,482.63L645.94,484.94L646.38,501.02L646.83,502.37L648.16,510.87L648.61,508.35L649.05,510.8L649.5,502.09L649.94,511.5L651.27,508.16L651.72,508.54L652.16,501.83L652.61,500.99L653.05,509.38L654.83,487.81L655.28,484.87L655.72,481.5L656.17,463.32L657.5,473.84L657.95,477.37L658.39,486.76L658.84,494.26L659.28,498.55L660.61,499.15L661.06,498.69L661.5,494.86L661.95,510.69L662.39,505.08L663.73,506.64L664.17,508.55L664.62,505.47L665.06,508.48L665.51,506.17L666.84,509.21L667.29,499.46L667.73,499.01L668.18,496.31L668.62,504.39L669.95,494.5L670.4,502.92L670.84,508.77L671.29,506.14L671.73,511.11L673.07,518.15L673.51,509.59L673.96,512.89L674.4,512L674.85,514.82L676.18,512.28L676.63,510.81L677.07,500.85L677.51,502.07L677.96,500.8L679.29,502.93L679.74,503.59L680.18,499.68L680.63,478.99L681.07,482.4L682.41,479.37L682.85,490.58L683.3,513.92L683.74,520.46L684.19,523.7L685.52,523.67L685.97,519.69L686.41,519.23L686.85,512.04L687.3,498.45L688.63,501.64L689.08,504.36L689.52,503.82L689.97,508.22L690.41,510.4L691.75,512.86L692.19,517.08L692.64,513.28L693.53,518.46L694.86,519.32L695.3,518.88L695.75,523.99L696.19,521.48L696.64,522.39L697.97,516.48L698.42,512.56L698.86,519.18L699.31,513.29L699.75,512.25L701.09,515.56L701.53,510.65L701.98,479.68L702.42,478.57L702.87,486.43L704.2,491.62L704.64,501.82L705.53,501.08L705.98,489.75L707.31,477.45L707.76,473.03L708.65,469.8L709.09,481.67L710.43,486.71L710.87,474.48L711.32,475.24L712.21,458.77L713.54,459.68L713.98,460.42L714.43,478.13L714.87,475.41L715.32,484.72L717.1,493.04L717.54,497.81L717.99,502.36L718.43,498.61L719.77,483.53L720.21,491.29L720.66,485.97L721.1,490.48L721.55,484.26L722.88,476.57L723.32,482.46L723.77,485.67L724.21,488.27L724.66,478.16L725.99,484.11L726.44,484.01L726.88,479.9L727.33,489.64L727.77,488.76L729.55,490.85L730,492.36L730.44,487.34L730.88,469.03L732.22,463.54L732.66,457.6L733.11,457.33L733.55,439.78L734,455.17L735.33,435.94L735.78,422.54L736.22,433.16L736.67,413.29L737.11,418.54L738.45,388.41L738.89,378.44L739.34,383.6L739.78,367.89L740.22,389.87L741.56,397.53L742,384.8L742.45,395.95L742.89,391.96L743.34,388.22L744.67,406.82L745.12,408.62L745.56,394.75L746.01,391.08L746.45,367.76L747.79,374.54L748.23,376.96L748.67,383.24L749.12,325.14L749.56,252.08L750.9,249.37L751.34,229.1L751.79,348.43L752.23,295.39L752.68,315.68L754.01,326.24L754.46,322.21L754.9,294.93L755.35,295.98L757.12,266.24L757.57,296.75L758.01,314.4L758.46,338.04L758.9,345.66L760.24,345.44L760.68,351.93L761.13,351.72L761.57,359.08L762.02,374.99L763.35,367.9L763.8,357.8L764.24,361.92L764.69,369.12L765.13,367.06L766.46,402.36L766.91,408.8L767.35,409.46L767.8,413.99L768.24,420.03L769.58,420.46L770.02,416.12L770.47,396.98L770.91,396.72L771.36,388.51L773.14,410.27L773.58,403.28L774.03,406.87L774.47,404.98L775.8,410.41L776.25,415.88L776.69,414.92L777.14,409.03L777.58,419.38" style="fill:none;stroke:#7AC36A;stroke-dasharray:6,2" />
<path d="M38.41,478.95L38.855,469.65L39.3,475.44L39.744,473.32L41.079,477.79L41.523,492.43L41.968,490.3L42.858,494.66L44.192,482.8L44.637,497.07L45.081,497.21L45.526,499.97L45.971,508.83L47.305,505.12L47.75,507.68L48.195,501.05L48.639,503.35L49.084,500.21L50.418,497.52L50.863,509.67L51.308,511.46L51.753,517.13L52.197,513.5L53.532,499.96L53.976,498.47L54.421,502.51L54.866,504.24L56.645,508.18L57.09,509.55L57.534,512.37L57.979,512.53L59.758,506.34L60.203,516.48L60.648,522.75L61.092,531.86L61.537,539.87L62.871,530.58L63.316,533.55L63.761,533.67L64.206,534.56L64.65,523.74L66.429,531.34L66.874,542.05L67.319,541.6L67.764,536.39L69.098,537.7L69.543,534.17L69.987,509.83L70.432,516.99L70.877,496.77L72.211,512.81L72.656,525.44L73.101,526.22L73.545,532.11L73.99,537.15L75.324,542.91L75.769,545L76.214,544.09L76.659,548.12L77.103,551.81L78.882,552.22L79.327,548.38L79.772,542.52L80.217,544.19L81.551,533.21L81.996,534.26L82.44,539.6L82.885,516.73L83.33,507.97L84.664,530.09L85.109,523.13L85.554,512.12L85.998,497.02L86.443,509.83L87.777,502.13L88.222,516.57L88.667,520.41L89.112,531.99L89.556,531.32L90.891,534.57L91.335,533.01L91.78,536.26L92.225,521.3L92.67,521.54L94.004,522.57L94.449,509.6L94.893,500.93L95.338,505.89L95.783,520.33L97.117,515.9L97.562,514.99L98.007,516.19L98.451,528.13L100.23,538.28L100.68,535.52L101.12,533.32L101.56,538.6L102.01,541.36L103.34,538.61L103.79,541.47L104.23,540.34L104.68,548.68L105.12,551.52L106.46,546.5L106.9,535.03L107.35,543.95L107.79,537.2L108.24,547.44L109.57,549.48L110.01,547.71L110.46,548.72L110.9,550.08L111.35,539.31L112.68,542.98L113.13,532.95L113.57,536.51L114.02,542.05L114.46,550.16L115.8,539.8L116.24,530.7L116.69,508.84L117.13,517.26L117.58,532.06L118.91,529.44L119.35,527L119.8,521.2L120.24,531.48L120.69,529.46L122.02,536.37L122.47,535.83L122.91,537.44L123.36,538.13L123.8,540.11L125.58,543.01L126.03,543.69L126.47,537.75L126.92,546.06L128.25,546L128.69,545.02L129.14,541.84L129.58,545.79L130.03,546.81L131.36,547.71L131.81,545.09L132.25,538.2L132.7,535.02L133.14,519.99L134.48,527.75L134.92,529.52L135.37,527.46L135.81,533.78L136.25,536.89L137.59,535.21L138.03,534.73L138.48,531.5L138.92,534.37L139.37,537.74L141.15,532.22L141.59,533.95L142.04,522.22L142.48,535.6L143.82,537.17L144.26,531.97L144.71,532L145.15,527.09L145.59,518.89L146.93,503.3L147.37,514.41L147.82,523.65L148.26,524L148.71,529.61L150.04,527.84L150.49,520.88L150.93,525.35L151.38,529.39L151.82,523.27L153.16,523.36L153.6,529.78L154.04,525.96L154.49,529.94L154.93,528.26L156.27,526.95L156.71,526.75L157.16,529.63L157.6,528.73L158.05,529.97L159.38,526.92L159.83,516.88L160.27,509.37L160.72,503.13L161.16,508.1L162.5,517.16L162.94,521.05L163.38,521.57L163.83,513.66L164.27,522.61L165.61,523.41L166.05,522.39L166.5,525.58L166.94,526.97L167.39,527.25L169.17,523.26L169.61,517.08L170.06,513.17L170.5,506.9L171.83,509.11L172.28,501.87L172.72,506.48L173.17,502.87L173.61,491.73L174.95,468.13L175.39,470.15L175.84,478.73L176.28,488.82L176.73,484.05L178.06,482.2L178.51,459.62L178.95,457.33L179.4,449.13L179.84,456.3L181.17,442.95L181.62,449.94L182.06,448.85L182.51,457.98L182.95,455.91L184.29,449.45L184.73,447.6L185.18,453.88L185.62,466.94L186.07,473.01L187.4,472.84L187.85,479L188.29,481.61L188.74,480.03L189.18,479.47L190.51,481.61L190.96,479.97L191.4,472.83L191.85,480.86L192.29,477.39L193.63,482.52L194.07,481.6L194.52,487.19L194.96,487.78L195.41,489.94L196.74,490.99L197.19,487.17L197.63,476.38L198.08,478.58L198.52,484.32L199.85,482.79L200.3,483.62L200.74,479.02L201.19,478.48L201.63,472.98L202.97,466.08L203.41,464.89L203.86,464.48L204.75,437.04L206.08,445.41L206.53,428.56L206.97,416.35L207.41,431.8L207.86,421.02L209.19,431.73L209.64,452.26L210.08,455.12L210.53,444.81L210.97,449.13L212.31,437.57L212.75,430.07L213.2,442.44L213.64,435.61L214.09,425.01L215.42,406.22L215.87,423.46L216.31,432.35L216.75,438.24L218.53,448.41L218.98,446.36L219.42,445.88L219.87,444.15L220.31,440.48L221.65,445.68L222.09,445.2L222.54,426.22L222.98,424.4L223.43,422.06L224.76,417.73L225.2,429.17L225.65,434.16L226.09,420.1L226.54,419.21L228.32,399.76L228.76,392.84L229.21,383.06L229.65,363.22L230.99,361.13L231.43,349.23L231.88,343.49L232.32,334.21L232.77,352.43L234.1,375.15L234.54,383.24L234.99,389.06L235.43,366.67L235.88,371L237.21,369.08L237.66,376.98L238.1,394.23L238.55,377.57L238.99,357.32L240.33,351.05L240.77,370.19L241.22,372.93L241.66,350.27L242.11,341.55L243.88,327.17L244.33,310.15L244.77,314.53L245.22,339.44L246.55,331.72L247,311.54L247.44,328.31L247.89,315.45L248.33,297.4L249.67,257.6L250.11,255.76L250.56,291.38L251,281.43L251.45,265.34L252.78,257.18L253.22,275.94L253.67,312.77L254.11,324.37L254.56,336.08L255.89,329.59L256.34,342.08L256.78,327.28L257.23,339.74L257.67,341.83L259.01,345L259.45,362.71L259.9,355.84L260.34,337.88L260.78,344.63L262.12,353.29L262.56,336.06L263.01,322.47L263.45,324.61L263.9,321.23L265.23,304.07L265.68,298.49L266.12,312.37L266.57,300.36L268.35,296.37L268.79,309.27L269.24,309.69L269.68,290.91L270.12,262.7L271.46,263.79L271.9,229.03L272.35,233.52L272.79,258.76L273.24,225.82L274.57,229.71L275.02,236.24L275.46,265.35L275.91,221.83L276.35,208.97L277.69,164.9L278.13,169.52L278.57,152.44L279.02,150.52L279.46,186.56L280.8,182.35L281.24,208.8L281.69,164.65L282.13,168.16L282.58,171.93L283.91,192.32L284.36,181.22L284.8,190.49L285.25,212.07L285.69,237.28L287.47,231.05L287.91,221.51L288.36,246.66L288.8,226.31L290.14,231.1L290.58,240.22L291.03,227.67L291.47,198.43L291.92,163.72L293.25,112.54L293.7,108.44L294.14,130.24L294.59,86.372L295.03,88.225L296.81,107.52L297.25,100.04L297.7,108.77L298.14,149.42L299.48,146.31L299.92,127.29L300.37,123.5L300.81,113.41L301.26,122.27L303.04,115.45L303.48,116.66L303.93,138.54L304.37,138.41L305.7,118.37L306.15,110.76L306.59,106.23L307.04,95.826L307.48,119.18L308.82,117.14L309.26,151.69L309.71,156.42L310.15,170.71L310.6,159.63L311.93,164.95L312.38,149.04L312.82,181.09L313.27,194.03L313.71,209.79L315.04,206.95L315.49,197.11L315.93,212.51L316.38,214.79L316.82,212.06L318.16,214.1L318.6,207.38L319.05,235.21L319.49,236.16L319.94,253.01L321.27,253.31L321.72,254.74L322.16,244.89L322.6,245.05L323.05,227.5L324.38,203.86L324.83,203.54L325.27,208.03L325.72,226.61L326.16,188.18L327.5,181.35L327.94,168.29L328.39,160.02L328.83,155.51L329.28,144.43L331.06,138.2L331.5,157.89L331.94,164.48L332.39,189.55L333.72,205.04L334.17,152.86L334.61,158.8L335.06,145.55L335.5,134.75L336.84,137.15L337.28,119.8L337.73,98.39L338.17,88.107L338.62,56.045L339.95,39.42L340.39,35.367L340.84,65.947L341.28,39.435L341.73,24.824L343.06,61.039L343.51,108.63L343.95,102.68L344.4,87.737L344.84,53.765L346.18,42.375L346.62,30.456L347.07,27.658L347.51,59.316L347.96,29.61L349.29,67.923L349.73,82.35L350.18,68.195L350.62,62.31L351.07,92.192L352.4,95.567L352.85,121.4L353.29,122.4L353.74,115.35L354.18,137.64L355.52,128.58L355.96,132L356.41,103.49L356.85,93.573L357.3,126.25L358.63,135.88L359.07,146.16L359.52,120.51L359.96,191.56L360.41,210.81L361.74,198.83L362.19,212.32L362.63,202L363.08,199.49L363.52,203.13L364.86,196.08L365.3,213.15L365.75,223.41L366.64,225.35L367.97,207.39L368.41,210.54L368.86,244.93L369.3,248.21L369.75,247.95L371.08,226.58L371.53,213.54L371.97,211.93L372.42,222.1L372.86,216.05L374.2,228.27L374.64,240.39L375.09,235.75L375.53,204.5L375.97,192.97L377.31,176.02L377.75,179.78L378.2,197.34L378.64,182.19L379.09,188.93L380.87,189.43L381.31,173.58L381.76,196.5L382.2,189.59L383.98,190.99L384.43,207.41L384.87,194.69L385.31,224.35L386.65,227.9L387.09,235.26L387.54,248.37L387.98,257.64L388.43,264.47L390.21,264.7L390.65,251.86L391.1,246.88L391.54,266.39L392.88,278.32L393.32,277.59L393.76,280.31L394.21,290.94L394.65,292.17L395.99,277.86L396.43,292.15L396.88,305.42L397.32,315.26L397.77,302.4L399.1,292.04L399.55,305.14L399.99,295.75L400.44,290.23L400.88,288.5L402.22,302.12L402.66,303.34L403.1,304.45L403.55,293.53L403.99,291.34L405.77,271.27L406.22,267.79L406.66,274.81L407.11,259.37L408.44,266.78L408.89,262.02L409.33,265.07L409.78,272L410.22,289.75L411.55,288.3L412,270.07L412.44,273.79L412.89,253.97L413.33,237.24L414.67,233.85L415.11,250.83L415.56,232.04L416,253.11L416.45,238.81L417.78,248.65L418.23,265.23L418.67,251.44L419.12,254.9L419.56,258.47L420.89,263.65L421.34,265.36L421.78,280.74L422.23,290.53L422.67,303.52L424.01,309.5L424.45,304.98L424.9,299.67L425.34,304.07L427.12,306L427.57,309.33L428.01,308.18L428.46,323.97L428.9,320.81L430.23,324.05L430.68,326.53L431.12,324.28L431.57,320.54L432.01,321.46L433.35,323.26L433.79,304.46L434.24,302.48L434.68,322.47L435.13,329.87L436.46,329.04L436.91,316.37L437.35,312.87L437.79,309.34L438.24,329.69L439.57,330.83L440.02,326.58L440.46,329.46L440.91,327.21L441.35,324.37L442.69,332.7L443.13,323.07L443.58,334.32L444.02,340.87L444.47,341.34L445.8,343.55L446.25,329.42L446.69,319.46L447.13,323.52L447.58,338.03L449.36,334.38L449.8,326.17L450.25,340.98L450.69,359.08L452.03,355.6L452.47,362.57L452.92,358.02L453.36,365.29L453.81,366.97L455.14,374.87L455.58,383.89L456.03,385.96L456.47,398.92L456.92,396.1L458.7,378.14L459.14,375.06L459.59,374.94L460.03,362.94L461.37,362.6L461.81,374.39L462.26,375.35L462.7,377.83L463.15,390.31L464.48,394.11L465.37,388.12L465.81,374.64L466.26,377.79L467.59,381.43L468.04,391.08L468.48,403.84L468.93,416.25L469.37,412.33L470.71,415.42L471.15,421.99L471.6,423.07L472.04,415.89L472.49,416.41L473.82,420.4L474.26,423.7L474.71,425.72L475.15,418.8L475.6,429.91L476.93,432.26L477.38,425.82L477.82,407.84L478.27,405.68L478.71,403.78L480.05,411.78L480.49,405.09L480.94,400.64L481.38,402.33L481.83,398.5L483.16,399.47L483.6,386.48L484.05,378.16L484.49,370.89L484.94,370.25L486.27,375.73L486.72,373.33L487.16,386.01L487.61,372.08L488.05,378.49L489.39,387.54L489.83,402.16L490.28,404.85L490.72,402.13L491.16,406L492.94,399.17L493.39,393L493.83,388.56L494.28,389.17L495.61,398.15L496.06,393.68L496.5,392.65L496.95,403.84L497.39,394.89L498.73,389.15L499.17,387.3L499.62,379.86L500.06,361.49L500.5,361.47L501.84,362.88L502.28,347.01L502.73,347.32L503.17,355.38L503.62,352.39L504.95,346.43L505.4,330.92L505.84,335.99L506.29,338.97L506.73,351.71L508.07,355.22L508.51,365.21L508.95,370.31L509.4,360.31L509.84,352.77L511.18,364.26L511.62,364.25L512.07,346.96L512.51,337.02L512.96,323.69L514.29,321.44L514.74,330.21L515.18,314.79L515.63,304.72L516.07,299.57L517.41,313.48L517.85,319.27L518.29,330.62L518.74,353.66L519.18,367.25L520.52,367.01L520.96,366.15L521.41,365.31L521.85,358.04L522.3,371.19L523.63,371.03L524.08,396.24L524.52,398.31L524.97,396.16L525.41,402.11L526.74,409.1L527.19,406.07L527.63,408.51L528.52,411.06L529.86,408.56L530.3,409.9L530.75,409.74L531.19,412.45L531.64,421.18L532.97,414.13L533.42,411.27L533.86,408.86L534.31,415.71L534.75,418.36L536.08,421.91L536.53,424.14L536.97,439.21L537.42,446.84L537.86,441.5L539.2,436.85L539.64,444.22L540.09,429.22L540.53,442.24L540.98,443.24L542.76,447.89L543.2,450.35L543.65,450.51L544.09,447.74L545.87,438.37L546.31,428.78L546.76,427.13L547.2,427.98L548.54,440.23L548.98,434.6L549.43,439.37L549.87,438.58L550.32,439.87L552.1,429.28L552.54,420.5L552.99,429.26L553.43,438.47L554.76,440.58L555.21,441.87L555.65,444.24L556.1,448.47L556.54,448.85L557.88,455.94L558.32,453.26L558.77,440.17L559.21,451.98L559.66,455.54L560.99,450.2L561.44,455.56L561.88,460.35L562.32,460.31L562.77,465.57L564.1,466.44L564.55,449.53L564.99,460.49L565.44,468.68L565.88,465.7L567.66,462.3L568.11,462L568.55,477.91L569,478.07L570.33,474.9L570.78,476.57L571.22,472.08L571.66,475.66L572.11,484.01L573.44,481.76L573.89,473.31L574.33,480.71L574.78,490.21L575.22,484.66L576.56,481.52L577,490.33L577.45,487.81L577.89,482.48L578.34,473.24L579.67,476.12L580.11,478.84L580.56,488.03L581,490.25L581.45,486.34L582.78,483.47L583.23,481.4L583.67,487.99L584.12,487.43L585.9,483.92L586.34,477.13L586.79,478.87L587.23,467.54L587.68,475.02L589.01,476.38L589.45,477.14L589.9,464.59L590.34,469.67L590.79,452.13L592.12,441.58L592.57,434.88L593.01,430.22L593.46,427.96L593.9,422.3L595.24,431.47L595.68,442.75L596.13,441.78L596.57,437.77L597.02,446.44L598.35,450.38L598.79,433.71L599.24,431.17L599.68,443.43L600.13,453.92L601.46,462.46L601.91,462.11L602.35,460.82L602.8,466.54L603.24,467.61L604.58,466.81L605.02,472.42L605.47,483.44L605.91,479.59L606.35,481.77L607.69,481.79L608.13,481.05L608.58,475.23L609.02,467.25L609.47,474.11L611.25,472.62L611.69,460.76L612.14,459.52L612.58,466.6L613.92,466.92L614.36,464.19L614.81,473.95L615.25,473.91L615.69,468.2L617.03,469.82L617.47,467.35L617.92,476.47L618.36,472.08L618.81,468.09L620.14,473.93L620.59,476.49L621.48,473.96L621.92,465.25L623.26,465.66L623.7,466.98L624.14,464.76L624.59,466.03L625.03,463.77L626.37,464.52L626.81,468.7L627.26,475.83L628.15,479.83L629.48,478.91L629.93,478.1L630.37,488.03L630.82,485.38L631.26,491.48L632.6,490.58L633.04,497.23L633.48,484.13L633.93,474.94L634.37,467.61L635.71,477.16L636.15,473.36L636.6,452.82L637.04,448.75L637.49,460.01L638.82,458.05L639.27,454.84L639.71,470.14L640.16,450.74L640.6,430.73L641.93,400.8L642.38,408.43L642.82,405.1L643.27,427.25L643.71,431.05L645.05,430.64L645.49,446.28L645.94,448.23L646.38,462.75L646.83,466.13L648.16,475.86L648.61,472.35L649.05,477.49L649.5,468.15L649.94,482.01L651.27,476.53L651.72,478.7L652.16,471.99L652.61,472.71L653.05,479.27L654.83,458.21L655.28,455.26L655.72,452.72L656.17,434.06L657.5,444.13L657.95,444.54L658.39,452.3L658.84,460.47L659.28,465.17L660.61,468.44L661.06,467.15L661.5,463.58L661.95,480.79L662.39,472.71L663.73,475.28L664.17,481.39L664.62,475.65L665.06,487.41L665.51,483.76L666.84,483.81L667.29,476.68L667.73,477.52L668.18,471.18L668.62,479.44L669.95,472.61L670.4,473.59L670.84,476.85L671.29,474.52L671.73,480.76L673.07,485.07L673.51,473.88L673.96,478.14L674.4,476.88L674.85,481.12L676.18,475.18L676.63,472L677.07,462.37L677.51,464.35L677.96,461.91L679.29,466.57L679.74,464.99L680.18,460.5L680.63,444.7L681.07,448.24L682.41,447.07L682.85,458.85L683.3,471.47L683.74,481.35L684.19,477.78L685.52,478.2L685.97,469.29L686.41,466.45L686.85,460.47L687.3,449.46L688.63,454.94L689.08,456.97L689.52,456.06L689.97,460.33L690.41,464.13L691.75,467.82L692.19,467.86L692.64,465.98L693.53,473.01L694.86,474.5L695.3,475.47L695.75,478.9L696.19,478.34L696.64,478.84L697.97,476.07L698.42,468.89L698.86,475.93L699.31,468.36L699.75,466.54L701.09,467.22L701.53,462.23L701.98,430.3L702.42,429.53L702.87,429.59L704.2,434.85L704.64,442.61L705.53,443.27L705.98,434.45L707.31,423.62L707.76,420.69L708.65,418L709.09,428.46L710.43,434.45L710.87,423.46L711.32,423.34L712.21,405.48L713.54,405.42L713.98,408.71L714.43,424.51L714.87,424.96L715.32,433.23L717.1,445.33L717.54,447.41L717.99,452.36L718.43,451.81L719.77,439.2L720.21,445.35L720.66,441.53L721.1,449.65L721.55,441.48L722.88,432.5L723.32,441.6L723.77,446.43L724.21,449.14L724.66,439.97L725.99,446.16L726.44,446.07L726.88,444.37L727.33,454.92L727.77,455.35L729.55,458.69L730,456.78L730.44,454.68L730.88,439.21L732.22,433.35L732.66,431.47L733.11,432.41L733.55,415.58L734,424.33L735.33,412.29L735.78,403.77L736.22,420.87L736.67,404.09L737.11,410.29L738.45,381.39L738.89,376.28L739.34,381.71L739.78,367.77L740.22,389.98L741.56,400.18L742,391.63L742.45,399.92L742.89,394.48L743.34,387.71L744.67,400.81L745.12,402.21L745.56,389.53L746.01,387.68L746.45,367.34L747.79,367.99L748.23,371.03L748.67,377.02L749.12,330.64L749.56,256.6L750.9,241.18L751.34,225.39L751.79,324.59L752.23,290.6L752.68,314.34L754.01,324.72L754.46,325.2L754.9,306.98L755.35,312.57L757.12,293.5L757.57,318.59L758.01,332.88L758.46,352.12L758.9,356.94L760.24,359.57L760.68,364.09L761.13,362.91L761.57,366.35L762.02,385.05L763.35,382.05L763.8,375.18L764.24,375.37L764.69,378.68L765.13,379.71L766.46,405.97L766.91,410.67L767.35,410.04L767.8,415.47L768.24,420.04L769.58,422.33L770.02,420.58L770.47,406.38L770.91,404.97L771.36,401.85L773.14,418.65L773.58,410.61L774.03,414.38L774.47,412.29L775.8,418.84L776.25,421.03L776.69,422.93L777.14,419.42L777.58,427.12" style="fill:none;stroke:#5A9BD4;stroke-dasharray:2,2" />
<path d="M772,49.783L792,49.783" style="fill:none;stroke:#F15A60" />
<text x="754.34" y="-47.296" transform="scale(1, -1)"
	style="font-family:Liberation Serif;font-variant:normal;font-weight:normal;font-style:normal;font-size:12px">dia</text>
<path d="M772,39.6L792,39.6" style="fill:none;stroke:#7AC36A;stroke-dasharray:6,2" />
<text x="752.33" y="-37.112" transform="scale(1, -1)"
	style="font-family:Liberation Serif;font-variant:normal;font-weight:normal;font-style:normal;font-size:12px">spy</text>
<path d="M772,29.416L792,29.416" style="fill:none;stroke:#5A9BD4;stroke-dasharray:2,2" />
<text x="759.67" y="-26.929" transform="scale(1, -1)"
	style="font-family:Liberation Serif;font-variant:normal;font-weight:normal;font-style:normal;font-size:12px">vt</text>
</g>
</svg>
